<?xml version="1.0" encoding="UTF-8" standalone="no"?>
<svg
   width="1920"
   height="1080"
   viewBox="0 0 1920 1080"
   fill="none"
   version="1.1"
   id="svg50"
   sodipodi:docname="splashloading.svg"
   inkscape:version="1.1.1 (3bf5ae0d25, 2021-09-20)"
   xmlns:inkscape="http://www.inkscape.org/namespaces/inkscape"
   xmlns:sodipodi="http://sodipodi.sourceforge.net/DTD/sodipodi-0.dtd"
   xmlns="http://www.w3.org/2000/svg"
   xmlns:svg="http://www.w3.org/2000/svg">
  <defs
     id="defs54" />
  <sodipodi:namedview
     id="namedview52"
     pagecolor="#ffffff"
     bordercolor="#666666"
     borderopacity="1.0"
     inkscape:pageshadow="2"
     inkscape:pageopacity="0.0"
     inkscape:pagecheckerboard="0"
     showgrid="false"
     inkscape:zoom="0.49571132"
     inkscape:cx="1055.0495"
     inkscape:cy="607.20825"
     inkscape:window-width="1920"
     inkscape:window-height="1011"
     inkscape:window-x="0"
     inkscape:window-y="0"
     inkscape:window-maximized="1"
     inkscape:current-layer="svg50" />
  <rect
     width="1920"
     height="1080"
     fill="#303030"
     id="rect2"
     x="-3.0882738"
     y="98.85112" />
  <path
     d="M1205.48 489.236C1205.48 490.087 1204.79 490.777 1203.94 490.777C1203.09 490.777 1202.4 490.087 1202.4 489.236C1202.4 488.385 1203.09 487.696 1203.94 487.696C1204.79 487.696 1205.48 488.385 1205.48 489.236Z"
     fill="white"
     stroke="white"
     stroke-width="2"
     id="path4" />
  <path
     d="M1200.4 494.318C1200.4 495.169 1199.71 495.859 1198.85 495.859C1198 495.859 1197.31 495.169 1197.31 494.318C1197.31 493.467 1198 492.777 1198.85 492.777C1199.71 492.777 1200.4 493.467 1200.4 494.318Z"
     fill="white"
     stroke="white"
     stroke-width="2"
     id="path6" />
  <path
     d="M1210.56 494.318C1210.56 495.169 1209.87 495.859 1209.02 495.859C1208.17 495.859 1207.48 495.169 1207.48 494.318C1207.48 493.467 1208.17 492.777 1209.02 492.777C1209.87 492.777 1210.56 493.467 1210.56 494.318Z"
     fill="white"
     stroke="white"
     stroke-width="2"
     id="path8" />
  <path
     d="M1205.48 499.4C1205.48 500.251 1204.79 500.941 1203.94 500.941C1203.09 500.941 1202.4 500.251 1202.4 499.4C1202.4 498.549 1203.09 497.859 1203.94 497.859C1204.79 497.859 1205.48 498.549 1205.48 499.4Z"
     fill="white"
     stroke="white"
     stroke-width="2"
     id="path10" />
  <path
     fill-rule="evenodd"
     clip-rule="evenodd"
     d="m 717.80144,560.56962 c -0.46687,-2.21937 -0.28918,-17.08603 -0.0976,-19.68517 2.99981,-0.42855 5.62334,-0.34841 8.26777,-0.27176 0.59578,0.0174 1.19505,0.0383 1.80128,0.0488 1.19156,0.0244 2.6305,-0.0209 4.18789,-0.0697 5.17041,-0.16027 11.62993,-0.35886 14.56354,1.77689 5.33068,3.88129 5.95781,11.53935 0.8118,15.94325 -2.80122,2.39706 -6.08673,2.45629 -9.79381,2.36919 -3.51546,-0.0801 -6.92988,-0.0732 -10.3443,-0.0662 v 0 h -0.003 c -3.10782,0.0105 -6.21215,0.0174 -9.39314,-0.0453 z m 0.0871,-31.10954 c -0.0767,-0.29267 -0.43203,-17.47277 -0.0627,-19.66427 0.0104,-0.0592 0.0244,-0.12891 0.0383,-0.18814 0.007,-0.0383 0.0139,-0.0732 0.0209,-0.10452 l 0.15679,-0.57488 c 1.62707,-0.22298 12.81452,-0.27524 14.12803,0.0976 10.27113,2.92664 9.85652,17.24978 0.64455,19.81408 -3.32731,0.92677 -7.7347,0.79786 -11.51843,0.68637 -1.21944,-0.0348 -2.37616,-0.0697 -3.40745,-0.0662 z m -9.19106,41.95206 -0.32054,-0.0314 c -0.34493,-1.95806 -0.75257,-4.05549 -1.2264,-6.29228 -0.8327,-5.04847 -0.74909,-9.36527 -0.6585,-13.97125 0.0244,-1.13582 0.0453,-2.28905 0.0557,-3.47365 l -0.0348,-34.37065 c -0.0279,-6.60586 -0.0383,-10.11783 4.74186,-13.66813 3.45622,-2.5643 8.68934,-2.27164 13.24655,-2.02078 1.08007,0.0627 2.1253,0.11846 3.09736,0.13588 6.93685,0.12543 9.81123,0.79437 14.33011,3.86387 3.93704,2.67927 7.27481,7.02046 8.49424,13.21868 1.2264,6.21215 0.32751,8.35487 -0.81528,11.06899 -0.51913,1.24033 -1.09052,2.59913 -1.533,4.52236 0.39022,0.41112 1.18111,0.84663 2.18453,1.39712 1.73856,0.96161 4.11124,2.26815 6.09717,4.40042 8.67193,9.313 6.97518,22.3087 -1.12536,30.0887 -6.14247,5.90207 -13.18384,5.67908 -21.31225,5.41778 h -0.0174 c -0.39718,-0.0139 -0.79437,-0.0244 -1.19156,-0.0383 -3.12175,-0.0941 -6.26093,-0.0279 -9.40707,0.0348 -4.86032,0.0976 -9.74155,0.1986 -14.60535,-0.28221 z"
     fill="#ffffff"
     id="path12"
     style="stroke-width:3.4841" />
  <path
     fill-rule="evenodd"
     clip-rule="evenodd"
     d="m 906.15195,508.2419 c 8.0204,-3.52242 16.43798,-2.14272 22.44109,0.73515 6.61282,3.17402 9.8391,7.0344 13.87021,14.682 3.62346,6.87762 1.64798,17.5982 -0.83619,22.53865 -7.09711,14.10016 -23.45845,19.76879 -37.53422,12.86679 -13.43469,-6.59192 -19.66078,-24.03682 -12.4905,-37.32169 3.32383,-6.1599 6.80445,-10.10041 14.54961,-13.5009 z m -1.0313,-11.39301 c -2.46674,1.3379 -6.81838,1.56088 -13.73432,7.30965 -3.82206,3.18098 -6.37591,6.5745 -8.86007,10.59863 -10.5185,17.03726 -4.49798,42.60707 14.88408,53.40779 31.53111,17.56335 67.07243,-13.23262 56.4947,-45.89607 -4.70006,-14.51128 -17.92222,-25.15172 -31.62519,-26.76834 -3.83251,-0.45294 -13.15945,-0.81877 -17.1592,1.34834 z"
     fill="#ffffff"
     id="path14"
     style="stroke-width:3.4841" />
  <path
     fill-rule="evenodd"
     clip-rule="evenodd"
     d="m 1145.2588,535.174 c -1.31,-4.08336 2.5608,-14.67851 4.2715,-17.58425 7.557,-12.82498 19.9674,-15.00603 28.8762,-2.71063 4.1775,5.76618 5.6687,12.13512 6.1112,20.14855 -1.9546,0.58533 -32.6112,0.0209 -39.2589,0.14633 z m -0.5679,36.03258 c 0.6864,-1.74902 0.3589,-20.85932 0.3484,-24.46536 1.1776,-0.3066 37.9488,-0.33447 39.1021,0.0104 0.6689,2.21938 0.3728,9.48024 0.3832,12.30236 0.01,2.76638 -0.4111,10.22236 0.2369,12.37205 13.156,-1.39713 10.6684,-12.33721 11.1561,-18.27063 0.3136,-3.84993 -0.021,-8.84613 0,-12.96434 0.028,-5.1286 0.3624,-7.88452 -0.6933,-13.64374 -2.9928,-16.36134 -14.2848,-31.84468 -31.2559,-31.0085 -17.9675,0.88845 -27.7648,17.84557 -29.6845,31.68442 -0.6341,4.56417 -0.7421,20.32624 -0.6202,25.45484 0.087,3.64785 -0.6794,9.65096 1.432,13.00266 1.9023,3.01724 5.6825,6.19474 9.5952,5.52579 z"
     fill="#ffffff"
     id="path16"
     style="stroke-width:3.4841" />
  <path
     fill-rule="evenodd"
     clip-rule="evenodd"
     d="m 779.6512,534.86392 c -1.48422,-8.53953 5.3481,-27.00178 18.66782,-28.24561 14.98163,-1.39712 21.77911,22.46549 20.33321,27.93901 -2.43538,0.85012 -24.05423,0.31705 -29.50337,0.42854 -3.23324,0.0662 -6.59888,-0.36234 -9.49766,-0.12194 z m -0.4808,36.05696 c 0.34144,-6.89852 0.21253,-17.57032 -0.003,-24.33993 1.08704,-0.49822 37.77114,-0.56442 39.32505,-0.13936 0.69334,2.411 0.20208,9.31648 0.22647,12.17693 0.0279,3.09737 -0.3066,9.9715 0.26479,12.58806 10.92963,-1.22641 11.76581,-9.33042 11.16655,-18.41696 l 0.0697,-12.88769 c 0.0732,-13.88066 -1.3588,-25.08204 -11.54283,-35.94895 -5.0833,-5.42475 -11.21532,-8.61619 -20.25656,-8.72419 -9.9053,-0.11846 -16.88744,6.2226 -21.18334,11.29545 -4.21228,4.9753 -7.51172,12.83543 -8.61618,20.41683 -1.13582,7.77303 -0.58881,17.19056 -0.67243,25.3329 -0.0418,3.99975 -0.63759,9.36178 1.43893,13.19081 1.82567,3.36216 5.79406,5.85677 9.78336,5.4561 z"
     fill="#ffffff"
     id="path18"
     style="stroke-width:3.4841" />
  <path
     fill-rule="evenodd"
     clip-rule="evenodd"
     d="m 1094.6697,507.87956 c 7.8009,-3.84297 15.8805,1.05568 18.5667,6.9682 3.7559,8.27126 -0.9233,15.86311 -7.1424,18.53193 -16.8665,7.23996 -28.4407,-17.1139 -11.4243,-25.50013 z m -8.2434,37.53422 c 1.634,0.40415 2.8535,2.14272 4.6269,3.94052 3.6652,3.71056 18.8977,19.34024 21.2739,20.71646 4.369,2.53643 8.8391,1.2926 12.9121,-1.44938 -0.9407,-3.23325 -19.8246,-19.08243 -21.4447,-22.95326 20.4656,-4.04853 26.4757,-23.97759 18.3543,-37.83037 -10.8739,-18.55284 -39.3146,-15.85615 -46.0424,5.99265 -1.6689,5.41429 -0.8536,32.17219 -0.8954,38.78501 l -0.014,16.29515 c -0.014,1.43196 -0.4007,2.16711 0.8292,2.37964 1.5086,0.25782 5.2262,-1.42848 6.2052,-2.27512 6.2575,-5.41778 3.2333,-13.05493 4.1949,-23.6013 z"
     fill="#ffffff"
     id="path20"
     style="stroke-width:3.4841" />
  <path
     fill-rule="evenodd"
     clip-rule="evenodd"
     d="m 1069.7932,571.26232 c -1.6027,-14.2221 -14.0549,-10.17706 -22.786,-10.91917 -1.9651,-0.16724 -9.0901,0.55397 -10.0273,-0.21601 l -0.2996,-0.47733 c -0.024,-0.0627 -0.098,-0.18117 -0.122,-0.2613 -0.3693,-1.15324 0.038,-8.07963 -0.052,-10.38262 -0.1429,-3.61302 -0.035,-7.87756 0.031,-11.46618 4.3586,-1.05917 19.5354,0.72121 22.2774,-0.67243 -0.3833,-5.60244 -3.8674,-8.9855 -7.6023,-10.20145 -4.0277,-1.31002 -12.1177,-0.0453 -14.466,-0.73515 -0.3206,-1.53648 -0.5296,-15.87704 0.1045,-17.30901 l 20.2461,-0.10452 c 3.9963,0.16375 6.7452,-0.66547 9.306,-2.97194 1.8501,-1.66888 3.8465,-4.92652 3.2159,-8.19112 l -14.2361,-0.16027 c -1.8918,0.0105 -3.5851,0.24737 -5.4212,0.20556 -15.6959,-0.35886 -25.2249,-2.64792 -24.6082,16.98499 0.2473,7.79742 -0.5784,44.9693 0.4041,49.03176 2.4702,10.2119 15.4102,8.21551 24.0995,8.07266 3.4528,-0.0557 6.4874,0.19511 9.9158,0.0139 3.0277,-0.15679 7.226,0.46687 10.0203,-0.24041 z"
     fill="#ffffff"
     id="path22"
     style="stroke-width:3.4841" />
  <path
     fill-rule="evenodd"
     clip-rule="evenodd"
     d="m 1021.6917,497.55965 -20.0197,-0.14285 c -7.70329,-0.003 -14.05829,1.31351 -20.7164,4.79761 -31.01547,16.22894 -24.68834,60.13907 9.78335,68.16644 6.52228,1.51906 12.73085,0.86057 19.65725,1.12884 1.5226,0.0592 3.2298,0 4.8534,-0.0174 5.5188,-0.0662 7.8671,1.5783 5.7209,-4.07639 -3.5364,-9.31649 -14.0375,-6.69645 -20.5075,-7.08318 -12.95729,-0.77347 -23.37824,-6.10415 -27.47206,-19.27056 -4.02762,-12.96434 3.78025,-24.93572 15.48683,-29.98069 13.76213,-5.92994 22.10663,1.30653 29.81693,-5.51534 1.9755,-1.74553 3.7454,-4.67914 3.397,-8.00646 z"
     fill="#ffffff"
     id="path24"
     style="stroke-width:3.4841" />
  <path
     fill-rule="evenodd"
     clip-rule="evenodd"
     d="m 849.40988,508.31855 c 0.92328,3.7489 -0.5714,58.11481 0.50867,62.91938 13.23959,-1.86051 10.57077,-12.14557 10.83556,-19.10332 0.2404,-6.24699 -0.41809,-42.4921 0.22298,-43.35615 0.59927,-0.80832 2.7385,-0.45991 3.38306,-0.44249 2.64095,0.0801 9.41056,0.0732 11.48012,-0.73514 4.67566,-1.82567 7.26086,-5.75922 7.11802,-10.31642 -1.28564,-0.43203 -46.23403,-0.44597 -52.93744,-0.34841 -2.8918,0.0418 -3.1322,0.19859 -2.20892,3.33428 2.98239,10.15267 14.46948,7.69638 21.59795,8.04827 z"
     fill="#ffffff"
     id="path26"
     style="stroke-width:3.4841" />
  <path
     d="M709 622.139L712.995 625.588C713.963 624.957 714.888 624.663 715.476 624.452C725.401 621.214 734.107 616.21 739.868 609.313L736.883 604.56C731.499 611.121 722.121 616.504 715.266 618.481V596.612C715.266 594.972 715.434 593.458 715.687 591.818H709.084C709.336 593.037 709.547 595.014 709.547 596.612V619.406C709.547 620.373 709.505 621.088 709 622.139Z"
     fill="white"
     id="path34" />
  <path
     d="M753.116 619.784C753.116 621.467 752.948 623.99 752.695 625.672H759.256C759.088 623.948 758.877 621.004 758.877 619.784V607.883C763.419 609.439 769.728 611.878 774.059 614.149L776.456 608.345C772.587 606.453 764.513 603.467 758.877 601.827V595.603C758.877 593.878 759.088 592.028 759.256 590.556H752.695C752.99 592.028 753.116 594.131 753.116 595.603V619.784Z"
     fill="white"
     id="path36" />
  <path
     d="M784.321 594.005C784.405 595.182 784.405 596.906 784.405 598.084V618.649C784.405 620.668 784.279 624.326 784.279 624.537H790.082C790.082 624.41 790.082 623.443 790.04 622.266H810.311C810.311 623.485 810.269 624.452 810.269 624.537H816.072C816.072 624.368 815.988 620.331 815.988 618.691V598.084C815.988 596.822 815.988 595.266 816.072 594.005C814.558 594.089 812.96 594.089 811.909 594.089H788.779C787.643 594.089 786.045 594.047 784.321 594.005ZM790.04 599.43H810.353V616.883H790.04V599.43Z"
     fill="white"
     id="path38" />
  <path
     d="M855.52 595.813L851.399 593.163C850.263 593.458 848.917 593.5 848.076 593.5H828.647C827.259 593.5 824.862 593.29 823.6 593.163V599.093C824.694 599.009 826.712 598.925 828.605 598.925H848.202C847.656 602.5 846.058 607.294 843.282 610.785C839.876 615.032 835.123 618.691 826.796 620.668L831.38 625.672C838.866 623.275 844.46 619.111 848.287 614.065C851.777 609.397 853.628 602.878 854.595 598.757C854.805 597.874 855.142 596.654 855.52 595.813Z"
     fill="white"
     id="path40" />
  <path
     d="M860.923 611.836L863.404 616.798C867.063 615.663 871.773 613.728 875.474 611.878V622.981C875.474 624.452 875.348 626.681 875.264 627.522H881.488C881.235 626.681 881.193 624.452 881.193 622.981V608.556C884.936 606.074 888.637 603.088 890.614 600.902L886.45 596.822C884.305 599.556 880.058 603.341 875.979 605.822C872.656 607.841 866.39 610.658 860.923 611.836Z"
     fill="white"
     id="path42" />
  <path
     d="M916.772 598.841L911.767 600.481C912.819 602.668 914.669 607.757 915.174 609.817L920.221 608.051C919.632 606.116 917.571 600.649 916.772 598.841ZM932.29 601.911L926.403 600.018C925.898 605.275 923.879 610.869 921.02 614.443C917.529 618.817 911.683 622.013 907.057 623.233L911.473 627.733C916.394 625.882 921.65 622.35 925.562 617.303C928.421 613.602 930.188 609.229 931.281 604.981C931.533 604.14 931.786 603.257 932.29 601.911ZM907.015 601.07L901.969 602.878C902.978 604.729 905.081 610.322 905.796 612.593L910.926 610.658C910.085 608.303 908.067 603.215 907.015 601.07Z"
     fill="white"
     id="path44" />
  <path
     d="M958.743 591.019L952.603 589C952.225 590.43 951.341 592.364 950.711 593.416C948.608 597.033 944.949 602.458 937.589 606.958L942.299 610.448C946.421 607.63 950.08 603.93 952.897 600.271H964.715C964.042 603.425 961.603 608.472 958.743 611.752C955.084 615.915 950.416 619.574 941.795 622.139L946.757 626.597C954.664 623.485 959.752 619.616 963.748 614.738C967.533 610.028 969.93 604.434 971.065 600.691C971.402 599.64 971.99 598.462 972.453 597.663L968.163 595.014C967.196 595.308 965.808 595.519 964.505 595.519H956.052C956.094 595.434 956.136 595.392 956.178 595.308C956.682 594.383 957.776 592.491 958.743 591.019Z"
     fill="white"
     id="path46" />
  <path
     d="M1007.56 595.308L1004.11 592.743C1003.27 593.037 1001.59 593.29 999.777 593.29H984.932C983.67 593.29 981.105 593.163 979.969 592.995V598.967C980.853 598.925 983.166 598.673 984.932 598.673H999.189C998.263 601.659 995.698 605.822 992.922 608.976C988.969 613.392 982.451 618.523 975.68 621.046L980.011 625.588C985.773 622.854 991.366 618.481 995.824 613.77C999.777 617.597 1003.69 621.887 1006.42 625.672L1011.22 621.509C1008.74 618.481 1003.65 613.098 999.483 609.481C1002.3 605.696 1004.66 601.196 1006.09 597.916C1006.46 597.075 1007.22 595.771 1007.56 595.308Z"
     fill="white"
     id="path48" />
</svg>
