<?xml version="1.0" encoding="UTF-8" standalone="no"?>
<svg
   width="618"
   height="180"
   viewBox="0 0 618 180"
   fill="none"
   version="1.1"
   id="svg50"
   sodipodi:docname="splashlogo.svg"
   inkscape:version="1.1.1 (3bf5ae0d25, 2021-09-20)"
   xmlns:inkscape="http://www.inkscape.org/namespaces/inkscape"
   xmlns:sodipodi="http://sodipodi.sourceforge.net/DTD/sodipodi-0.dtd"
   xmlns="http://www.w3.org/2000/svg"
   xmlns:svg="http://www.w3.org/2000/svg">
  <defs
     id="defs54" />
  <sodipodi:namedview
     id="namedview52"
     pagecolor="#ffffff"
     bordercolor="#666666"
     borderopacity="1.0"
     inkscape:pageshadow="2"
     inkscape:pageopacity="0.0"
     inkscape:pagecheckerboard="0"
     showgrid="false"
     inkscape:zoom="2.1779935"
     inkscape:cx="309"
     inkscape:cy="89.991085"
     inkscape:window-width="1920"
     inkscape:window-height="1011"
     inkscape:window-x="0"
     inkscape:window-y="0"
     inkscape:window-maximized="1"
     inkscape:current-layer="svg50" />
  <rect
     width="15"
     height="180"
     fill="#FF0000"
     fill-opacity="0.73"
     id="rect2" />
  <path
     fill-rule="evenodd"
     clip-rule="evenodd"
     d="m 125.86778,95.137354 c -0.42488,-2.021386 -0.26317,-15.550245 -0.0888,-17.916297 2.73006,-0.389058 5.11767,-0.317715 7.52431,-0.245737 0.54221,0.01617 1.08759,0.03234 1.63931,0.04344 1.08441,0.02156 2.39395,-0.01903 3.8113,-0.06278 4.70547,-0.146174 10.58414,-0.328178 13.25395,1.615523 4.85133,3.534176 5.42207,10.502329 0.7388,14.510856 -2.54933,2.182463 -5.53939,2.236367 -8.91313,2.15678 -3.19933,-0.07547 -6.30672,-0.06754 -9.4141,-0.05993 v 0 h -0.003 c -2.82835,0.007 -5.65353,0.01395 -8.54848,-0.04186 z m 0.0793,-28.312087 c -0.0697,-0.265713 -0.39318,-15.900968 -0.0571,-17.896448 0.01,-0.0553 0.0222,-0.115925 0.0349,-0.172872 0.006,-0.0326 0.0127,-0.06402 0.019,-0.09249 l 0.14269,-0.522896 c 1.48076,-0.204137 11.66221,-0.252967 12.8576,0.08821 9.34752,2.663093 8.9702,15.697244 0.5866,18.031778 -3.02812,0.842482 -7.03918,0.725162 -10.48267,0.624331 -1.10978,-0.03266 -2.16249,-0.06342 -3.10105,-0.05961 z m -8.36457,38.178983 -0.29171,-0.0289 c -0.31391,-1.78262 -0.6849,-3.68986 -1.11613,-5.727415 -0.75782,-4.594491 -0.68172,-8.52248 -0.59928,-12.714597 0.0222,-1.03273 0.0412,-2.081631 0.0507,-3.160655 l -0.0317,-31.279006 c -0.0254,-6.012157 -0.0349,-9.209721 4.31546,-12.438611 3.14543,-2.334535 7.90798,-2.069519 12.05538,-1.838653 0.98295,0.05479 1.93419,0.10768 2.81885,0.123408 6.31306,0.112373 8.92897,0.721103 13.0415,3.516228 3.58301,2.436508 6.62064,6.388944 7.73042,12.028849 1.11612,5.654205 0.29805,7.603518 -0.74197,10.075126 -0.47245,1.128077 -0.99246,2.365006 -1.39515,4.112752 0.35513,0.375106 1.0749,0.77209 1.98809,1.274662 1.58223,0.872605 3.74155,2.062607 5.5489,4.004723 7.89213,8.474601 6.34795,20.299471 -1.02417,27.382729 -5.59012,5.37133 -11.99831,5.1665 -19.39579,4.92964 l -0.0159,-3.2e-4 c -0.36147,-0.0117 -0.72295,-0.0231 -1.08442,-0.0342 -2.84104,-0.0856 -5.69793,-0.0273 -8.56116,0.0311 -4.42327,0.0904 -8.86556,0.18074 -13.292,-0.25683 z"
     fill="#ffffff"
     id="path12"
     style="stroke-width:3.1708" />
  <path
     fill-rule="evenodd"
     clip-rule="evenodd"
     d="m 297.28132,47.514293 c 7.29918,-3.206664 14.95984,-1.951312 20.42313,0.669863 6.01818,2.888505 8.95434,6.401944 12.62296,13.361504 3.29763,6.259702 1.49979,16.016575 -0.76099,20.512138 -6.45893,12.831599 -21.34901,17.989542 -34.15905,11.707867 -12.22661,-5.996937 -17.89283,-21.872823 -11.36732,-33.965404 3.02494,-5.605819 6.19257,-9.190378 13.24127,-12.285968 z m -0.93856,-10.366905 c -2.24493,1.216415 -6.20526,1.418902 -12.4993,6.652405 -3.47837,2.892977 -5.80257,5.982637 -8.06335,9.645579 -9.57265,15.504015 -4.0935,38.775479 13.54566,48.602748 28.69576,15.98591 61.04111,-12.040489 51.41455,-41.767261 -4.27741,-13.205849 -16.3106,-22.890302 -28.78136,-24.361586 -3.48789,-0.411462 -11.97612,-0.747098 -15.6162,1.228115 z"
     fill="#ffffff"
     id="path14"
     style="stroke-width:3.1708" />
  <path
     fill-rule="evenodd"
     clip-rule="evenodd"
     d="m 514.88709,72.023479 c -1.19223,-3.715545 2.33053,-13.358302 3.8874,-16.001545 6.87747,-11.673212 18.17186,-13.657785 26.2796,-2.465552 3.80179,5.247169 5.1589,11.042665 5.56159,18.335826 -1.77882,0.531109 -29.6787,0.01712 -35.72859,0.131271 z m -0.51684,32.792111 c 0.62464,-1.5892 0.32659,-18.980734 0.31708,-22.265367 1.07173,-0.276811 34.53637,-0.302177 35.5859,0.01015 0.6088,2.020751 0.33928,8.627116 0.34879,11.196417 0.01,2.518251 -0.37416,9.30345 0.21561,11.25888 11.97295,-1.2699 9.709,-11.227806 10.15291,-16.627998 0.28537,-3.503419 -0.019,-8.048763 0,-11.797602 0.0254,-4.666468 0.32976,-7.174572 -0.63099,-12.416859 -2.72372,-14.88866 -13.00029,-28.980901 -28.44526,-28.218234 -16.35182,0.807476 -25.26812,16.240243 -27.01523,28.833367 -0.57709,4.154701 -0.67538,18.498139 -0.5644,23.167779 0.0793,3.317926 -0.61831,8.782486 1.3032,11.831529 1.73126,2.747498 5.17157,5.637368 8.73239,5.027938 z"
     fill="#ffffff"
     id="path16"
     style="stroke-width:3.1708" />
  <path
     fill-rule="evenodd"
     clip-rule="evenodd"
     d="m 182.15585,71.743497 c -1.35076,-7.771159 4.86718,-24.575329 16.98916,-25.705878 13.63444,-1.271746 19.82068,20.443299 18.5048,25.425896 -2.21639,0.773676 -21.89122,0.289812 -26.85035,0.39096 -2.94251,0.05961 -6.0055,-0.329129 -8.64361,-0.110978 z m -0.43757,32.812403 c 0.31074,-6.276916 0.19342,-15.989081 -0.003,-22.151534 0.98929,-0.451205 34.37466,-0.51367 35.78884,-0.124612 0.63099,2.192609 0.1839,8.477455 0.2061,11.080049 0.0254,2.821062 -0.27903,9.076417 0.24098,11.458327 9.94681,-1.11644 10.7078,-8.491725 10.16242,-16.762127 l 0.0634,-11.728478 c 0.0664,-12.631269 -1.23677,-22.827805 -10.50502,-32.717092 -4.6262,-4.93567 -10.20681,-7.840378 -18.43504,-7.93918 -9.01459,-0.108213 -15.36887,5.661784 -19.27847,10.279581 -3.8335,4.528792 -6.83625,11.682247 -7.8414,18.580992 -1.03368,7.073741 -0.53586,15.644418 -0.61196,23.055849 -0.038,3.641032 -0.58026,8.520578 1.30954,12.003704 1.6615,3.061411 5.27304,5.331701 8.90361,4.964521 z"
     fill="#ffffff"
     id="path18"
     style="stroke-width:3.1708" />
  <path
     fill-rule="evenodd"
     clip-rule="evenodd"
     d="m 468.84705,47.186019 c 7.09942,-3.497743 14.45251,0.960056 16.8972,6.341382 3.41812,7.52539 -0.84026,14.433964 -6.50014,16.864066 -15.34986,6.58956 -25.88326,-15.574438 -10.39706,-23.205448 z m -7.50212,34.158982 c 1.48711,0.366545 2.59689,1.950043 4.21082,3.583957 3.33569,3.376587 17.19843,17.601432 19.36092,18.855492 3.97618,2.30771 8.04432,1.17636 11.75099,-1.32064 -0.85612,-2.942823 -18.04186,-17.36458 -19.51628,-20.888291 18.62528,-3.685423 24.09492,-21.820537 16.70378,-34.428247 -9.89607,-16.88443 -35.77933,-14.432303 -41.90214,5.452574 -1.51882,4.92787 -0.77685,29.279435 -0.8149,35.298885 l -0.0127,14.829839 c -0.0127,1.30098 -0.36465,1.97256 0.75465,2.16471 1.37295,0.23559 4.7562,-1.2994 5.6472,-2.06959 5.69475,-4.930275 2.9425,-11.883209 3.81764,-21.478689 z"
     fill="#ffffff"
     id="path20"
     style="stroke-width:3.1708" />
  <path
     fill-rule="evenodd"
     clip-rule="evenodd"
     d="m 446.20752,104.86759 c -1.45856,-12.944161 -12.79101,-9.260323 -20.73704,-9.936021 -1.78833,-0.151881 -8.27262,0.502889 -9.12557,-0.19659 l -0.27268,-0.436302 c -0.0222,-0.05676 -0.0888,-0.164882 -0.11098,-0.236859 -0.33611,-1.050169 0.0349,-7.353406 -0.0476,-9.447403 -0.13001,-3.288756 -0.0317,-7.171085 0.0285,-10.436376 3.96668,-0.964241 17.77869,0.655087 20.27411,-0.612282 -0.34879,-5.098332 -3.51959,-8.178132 -6.91869,-9.284107 -3.66545,-1.192951 -11.02805,-0.04186 -13.16517,-0.668469 -0.29171,-1.397689 -0.48196,-14.448645 0.0951,-15.754 l 18.42553,-0.09354 c 3.63691,0.146935 6.13867,-0.605211 8.46921,-2.706628 1.6837,-1.518751 3.50057,-4.481833 2.92665,-7.45316 l -12.9558,-0.144682 c -1.72175,0.007 -3.26276,0.225127 -4.93377,0.186855 -14.28446,-0.327702 -22.9566,-2.411236 -22.39537,15.457373 0.22513,7.095683 -0.52635,40.924394 0.36781,44.621232 2.2481,9.293939 14.02446,7.476749 21.93244,7.347379 3.14226,-0.0514 5.90403,0.17662 9.0241,0.0136 2.75543,-0.14427 6.57624,0.42267 9.11922,-0.22005 z"
     fill="#ffffff"
     id="path22"
     style="stroke-width:3.1708" />
  <path
     fill-rule="evenodd"
     clip-rule="evenodd"
     d="m 402.43144,37.794137 -18.21943,-0.130162 c -7.01064,-0.0043 -12.79418,1.194346 -18.85358,4.36426 -28.22648,14.770799 -22.4683,54.73035 8.90361,62.038415 5.93574,1.38278 11.58611,0.7835 17.88966,1.02734 1.38564,0.0536 2.93933,-6.4e-4 4.41693,-0.0178 5.02254,-0.0583 7.15967,1.43859 5.20645,-3.70794 -3.21836,-8.48094 -12.77516,-6.094912 -18.66334,-6.446554 -11.79221,-0.704235 -21.27608,-5.554293 -25.00177,-17.537703 -3.66544,-11.798236 3.44032,-22.695456 14.09422,-27.286079 12.52466,-5.396895 20.11873,1.189431 27.13572,-5.017191 1.79784,-1.591458 3.40861,-4.259782 3.09153,-7.286629 z"
     fill="#ffffff"
     id="path24"
     style="stroke-width:3.1708" />
  <path
     fill-rule="evenodd"
     clip-rule="evenodd"
     d="m 245.64164,47.58554 c 0.84026,3.408961 -0.52001,52.88891 0.46294,57.25954 12.04904,-1.69416 9.62021,-11.051512 9.86119,-17.386139 0.21879,-5.684296 -0.38049,-38.670367 0.20293,-39.455869 0.54538,-0.734421 2.49225,-0.418895 3.07885,-0.401551 2.40347,0.07134 8.56434,0.06395 10.44779,-0.671258 4.25522,-1.66223 6.60795,-5.240511 6.47795,-9.387508 -1.17003,-0.393655 -42.07654,-0.405101 -48.17716,-0.318221 -2.63176,0.03735 -2.85055,0.18045 -2.01029,3.035535 2.71421,9.239843 13.16834,7.002494 19.6558,7.325471 z"
     fill="#ffffff"
     id="path26"
     style="stroke-width:3.1708" />
  <path
     d="M115 171.139L118.995 174.588C119.963 173.957 120.888 173.663 121.476 173.452C131.401 170.214 140.107 165.21 145.868 158.313L142.883 153.56C137.499 160.121 128.121 165.504 121.266 167.481V145.612C121.266 143.972 121.434 142.458 121.687 140.818H115.084C115.336 142.037 115.547 144.014 115.547 145.612V168.406C115.547 169.373 115.505 170.088 115 171.139Z"
     fill="white"
     id="path34" />
  <path
     d="M159.116 168.784C159.116 170.467 158.948 172.99 158.695 174.672H165.256C165.088 172.948 164.877 170.004 164.877 168.784V156.883C169.419 158.439 175.728 160.878 180.059 163.149L182.456 157.345C178.587 155.453 170.513 152.467 164.877 150.827V144.603C164.877 142.878 165.088 141.028 165.256 139.556H158.695C158.99 141.028 159.116 143.131 159.116 144.603V168.784Z"
     fill="white"
     id="path36" />
  <path
     d="M190.321 143.005C190.405 144.182 190.405 145.906 190.405 147.084V167.649C190.405 169.668 190.279 173.326 190.279 173.537H196.082C196.082 173.41 196.082 172.443 196.04 171.266H216.311C216.311 172.485 216.269 173.452 216.269 173.537H222.072C222.072 173.368 221.988 169.331 221.988 167.691V147.084C221.988 145.822 221.988 144.266 222.072 143.005C220.558 143.089 218.96 143.089 217.909 143.089H194.779C193.643 143.089 192.045 143.047 190.321 143.005ZM196.04 148.43H216.353V165.883H196.04V148.43Z"
     fill="white"
     id="path38" />
  <path
     d="M261.52 144.813L257.399 142.163C256.263 142.458 254.917 142.5 254.076 142.5H234.647C233.259 142.5 230.862 142.29 229.6 142.163V148.093C230.694 148.009 232.712 147.925 234.605 147.925H254.202C253.656 151.5 252.058 156.294 249.282 159.785C245.876 164.032 241.123 167.691 232.796 169.668L237.38 174.672C244.866 172.275 250.46 168.111 254.287 163.065C257.777 158.397 259.628 151.878 260.595 147.757C260.805 146.874 261.142 145.654 261.52 144.813Z"
     fill="white"
     id="path40" />
  <path
     d="M266.923 160.836L269.404 165.798C273.063 164.663 277.773 162.728 281.474 160.878V171.981C281.474 173.452 281.348 175.681 281.264 176.522H287.488C287.235 175.681 287.193 173.452 287.193 171.981V157.556C290.936 155.074 294.637 152.088 296.614 149.902L292.45 145.822C290.305 148.556 286.058 152.341 281.979 154.822C278.656 156.841 272.39 159.658 266.923 160.836Z"
     fill="white"
     id="path42" />
  <path
     d="M322.772 147.841L317.767 149.481C318.819 151.668 320.669 156.757 321.174 158.817L326.221 157.051C325.632 155.116 323.571 149.649 322.772 147.841ZM338.29 150.911L332.403 149.018C331.898 154.275 329.879 159.869 327.02 163.443C323.529 167.817 317.683 171.013 313.057 172.233L317.473 176.733C322.394 174.882 327.65 171.35 331.562 166.303C334.421 162.602 336.188 158.229 337.281 153.981C337.533 153.14 337.786 152.257 338.29 150.911ZM313.015 150.07L307.969 151.878C308.978 153.729 311.081 159.322 311.796 161.593L316.926 159.658C316.085 157.303 314.067 152.215 313.015 150.07Z"
     fill="white"
     id="path44" />
  <path
     d="M364.743 140.019L358.603 138C358.225 139.43 357.341 141.364 356.711 142.416C354.608 146.033 350.949 151.458 343.589 155.958L348.299 159.448C352.421 156.63 356.08 152.93 358.897 149.271H370.715C370.042 152.425 367.603 157.472 364.743 160.752C361.084 164.915 356.416 168.574 347.795 171.139L352.757 175.597C360.664 172.485 365.752 168.616 369.748 163.738C373.533 159.028 375.93 153.434 377.065 149.691C377.402 148.64 377.99 147.462 378.453 146.663L374.163 144.014C373.196 144.308 371.808 144.519 370.505 144.519H362.052C362.094 144.434 362.136 144.392 362.178 144.308C362.682 143.383 363.776 141.491 364.743 140.019Z"
     fill="white"
     id="path46" />
  <path
     d="M413.558 144.308L410.109 141.743C409.268 142.037 407.586 142.29 405.777 142.29H390.932C389.67 142.29 387.105 142.163 385.969 141.995V147.967C386.853 147.925 389.166 147.673 390.932 147.673H405.189C404.263 150.659 401.698 154.822 398.922 157.976C394.969 162.392 388.451 167.523 381.68 170.046L386.011 174.588C391.773 171.854 397.366 167.481 401.824 162.77C405.777 166.597 409.688 170.887 412.422 174.672L417.216 170.509C414.735 167.481 409.646 162.098 405.483 158.481C408.301 154.696 410.656 150.196 412.086 146.916C412.464 146.075 413.221 144.771 413.558 144.308Z"
     fill="white"
     id="path48" />
</svg>
